<svg width="32" height="34" viewBox="0 0 32 34" fill="none" xmlns="http://www.w3.org/2000/svg">
<path d="M7.13008 7.76882H29.7121C30.3649 7.76882 30.8427 8.38411 30.681 9.01655L28.7801 16.4506C28.4405 17.7785 27.2442 18.7074 25.8736 18.7074H9.02537M0 1.49957H4.65214C5.63535 1.49957 6.47274 2.21422 6.62728 3.18521L9.6467 22.1562C9.80125 23.1272 10.6386 23.8418 11.6218 23.8418H28.203" stroke="black" stroke-width="1.5"/>
<path d="M15.7689 30.2656C15.7689 31.5678 14.7584 32.5758 13.5695 32.5758C12.3807 32.5758 11.3701 31.5678 11.3701 30.2656C11.3701 28.9634 12.3807 27.9554 13.5695 27.9554C14.7584 27.9554 15.7689 28.9634 15.7689 30.2656Z" stroke="black" stroke-width="1.5"/>
<path d="M28.746 30.2656C28.746 31.5678 27.7354 32.5758 26.5466 32.5758C25.3577 32.5758 24.3472 31.5678 24.3472 30.2656C24.3472 28.9634 25.3577 27.9554 26.5466 27.9554C27.7354 27.9554 28.746 28.9634 28.746 30.2656Z" stroke="black" stroke-width="1.5"/>
</svg>
