<svg width="19" height="19" viewBox="0 0 19 19" fill="none" xmlns="http://www.w3.org/2000/svg">
<path d="M4.14005 4.42146H16.6916C17.3507 4.42146 17.8296 5.04797 17.6565 5.68396L16.9778 8.17874C16.6225 9.48483 15.4366 10.3912 14.0831 10.3912H5.24054M0 1H2.00252C2.97824 1 3.81154 1.70406 3.97445 2.66608L5.47496 11.5273C5.63787 12.4893 6.47118 13.1934 7.44689 13.1934H16.3759" stroke="white" stroke-width="1.5"/>
<path d="M8.84137 16.6989C8.84137 17.1895 8.42828 17.619 7.87882 17.619C7.32936 17.619 6.91626 17.1895 6.91626 16.6989C6.91626 16.2084 7.32936 15.7788 7.87882 15.7788C8.42828 15.7788 8.84137 16.2084 8.84137 16.6989Z" stroke="white" stroke-width="1.5"/>
<path d="M16.3768 16.6989C16.3768 17.1895 15.9637 17.619 15.4142 17.619C14.8648 17.619 14.4517 17.1895 14.4517 16.6989C14.4517 16.2084 14.8648 15.7788 15.4142 15.7788C15.9637 15.7788 16.3768 16.2084 16.3768 16.6989Z" stroke="white" stroke-width="1.5"/>
</svg>
