<svg width="28" height="25" viewBox="0 0 28 25" fill="none" xmlns="http://www.w3.org/2000/svg">
<path d="M20.1004 0C17.7169 0 15.4856 1.00889 14 2.69927C12.5144 1.00883 10.2832 0 7.89957 0C3.54375 0 0 3.31281 0 7.3849C0 10.5735 2.03385 14.2616 6.04492 18.3468C9.13175 21.4906 12.4897 23.9248 13.4454 24.596L13.9998 24.9854L14.5543 24.5961C15.5099 23.9249 18.868 21.4907 21.9549 18.347C25.9661 14.2618 28 10.5736 28 7.3849C28 3.31281 24.4562 0 20.1004 0ZM20.5948 17.1798C18.0558 19.7656 15.3242 21.8559 13.9998 22.8193C12.6755 21.8559 9.944 19.7656 7.40498 17.1797C3.76837 13.476 1.84615 10.0889 1.84615 7.3849C1.84615 4.26452 4.56172 1.72587 7.89957 1.72587C10.0961 1.72587 12.1243 2.84504 13.1927 4.64668L14 6.00817L14.8073 4.64668C15.8756 2.8451 17.9038 1.72587 20.1004 1.72587C23.4383 1.72587 26.1538 4.26446 26.1538 7.3849C26.1538 10.0891 24.2316 13.4761 20.5948 17.1798Z" fill="#E8AA31"/>
</svg>
