<svg width="28" height="30" viewBox="0 0 28 30" fill="none" xmlns="http://www.w3.org/2000/svg">
<path d="M6.21007 6.95988H25.7121C26.3649 6.95988 26.8427 7.57518 26.681 8.20761L25.141 14.2302C24.8014 15.5581 23.6051 16.487 22.2345 16.487H7.8608M0 1.49957H3.83163C4.81484 1.49957 5.65222 2.21422 5.80677 3.18521L8.36735 19.2733C8.52189 20.2443 9.35928 20.959 10.3425 20.959H24.5639" stroke="white" stroke-width="1.5"/>
<path d="M13.6374 26.5538C13.6374 27.6379 12.7973 28.4692 11.8186 28.4692C10.8399 28.4692 9.99976 27.6379 9.99976 26.5538C9.99976 25.4697 10.8399 24.6385 11.8186 24.6385C12.7973 24.6385 13.6374 25.4697 13.6374 26.5538Z" stroke="white" stroke-width="1.5"/>
<path d="M24.94 26.5538C24.94 27.6379 24.0999 28.4692 23.1212 28.4692C22.1425 28.4692 21.3024 27.6379 21.3024 26.5538C21.3024 25.4697 22.1425 24.6385 23.1212 24.6385C24.0999 24.6385 24.94 25.4697 24.94 26.5538Z" stroke="white" stroke-width="1.5"/>
</svg>
