<svg width="23" height="28" viewBox="0 0 23 28" fill="none" xmlns="http://www.w3.org/2000/svg">
<path d="M11.4024 14.9052C11.4304 14.9052 11.4584 14.9052 11.492 14.9052C11.5032 14.9052 11.5144 14.9052 11.5256 14.9052C11.5424 14.9052 11.5648 14.9052 11.5816 14.9052C13.2222 14.8766 14.5493 14.2866 15.5292 13.1581C17.6849 10.672 17.3266 6.41005 17.2874 6.00333C17.1474 2.95011 15.7364 1.48938 14.5717 0.8077C13.7038 0.297875 12.6903 0.0229135 11.5592 0H11.52C11.5144 0 11.5032 0 11.4976 0H11.464C10.8425 0 9.62179 0.103111 8.45151 0.784787C7.27563 1.46646 5.84218 2.9272 5.7022 6.00333C5.663 6.41005 5.30464 10.672 7.46041 13.1581C8.43471 14.2866 9.76177 14.8766 11.4024 14.9052ZM7.19724 6.14654C7.19724 6.12936 7.20284 6.11217 7.20284 6.10072C7.38762 1.99347 10.2377 1.55239 11.4584 1.55239H11.4808C11.492 1.55239 11.5088 1.55239 11.5256 1.55239C13.0374 1.58676 15.6076 2.21688 15.7811 6.10072C15.7811 6.1179 15.7811 6.13509 15.7867 6.14654C15.7923 6.18664 16.1843 10.0819 14.4037 12.1327C13.6982 12.9461 12.7575 13.3471 11.52 13.3586C11.5088 13.3586 11.5032 13.3586 11.492 13.3586C11.4808 13.3586 11.4752 13.3586 11.464 13.3586C10.2321 13.3471 9.28582 12.9461 8.5859 12.1327C6.81088 10.0934 7.19164 6.18091 7.19724 6.14654Z" fill="white"/>
<path d="M22.9984 21.974C22.9984 21.9683 22.9984 21.9626 22.9984 21.9568C22.9984 21.911 22.9928 21.8652 22.9928 21.8136C22.9592 20.6794 22.8864 18.0272 20.4563 17.1794C20.4395 17.1737 20.4171 17.1679 20.4003 17.1622C17.8749 16.5034 15.7752 15.0141 15.7528 14.9969C15.4112 14.7506 14.9408 14.8365 14.7001 15.1859C14.4593 15.5353 14.5433 16.0165 14.8848 16.2628C14.98 16.3316 17.2086 17.9183 19.9971 18.6516C21.3018 19.127 21.4474 20.5534 21.4866 21.8595C21.4866 21.911 21.4866 21.9568 21.4922 22.0027C21.4978 22.5182 21.4642 23.3145 21.3746 23.7727C20.4675 24.2997 16.9118 26.1214 11.5028 26.1214C6.11612 26.1214 2.53807 24.294 1.62536 23.767C1.53577 23.3087 1.49658 22.5125 1.50777 21.9969C1.50777 21.9511 1.51337 21.9053 1.51337 21.8537C1.55257 20.5477 1.69815 19.1213 3.00283 18.6458C5.79135 17.9126 8.01993 16.3201 8.11512 16.2571C8.45668 16.0108 8.54067 15.5296 8.2999 15.1802C8.05912 14.8308 7.58877 14.7448 7.2472 14.9911C7.2248 15.0083 5.13621 16.4977 2.59967 17.1565C2.57727 17.1622 2.56047 17.1679 2.54367 17.1737C0.113513 18.0272 0.0407202 20.6794 0.00712354 21.8079C0.00712354 21.8595 0.00712341 21.9053 0.00152397 21.9511C0.00152397 21.9568 0.00152397 21.9626 0.00152397 21.9683C-0.00407547 22.2662 -0.0096748 23.7956 0.287096 24.5633C0.34309 24.7122 0.44388 24.8382 0.578267 24.9241C0.74625 25.0387 4.77225 27.6623 11.5084 27.6623C18.2445 27.6623 22.2705 25.033 22.4385 24.9241C22.5673 24.8382 22.6737 24.7122 22.7297 24.5633C23.0096 23.8014 23.004 22.2719 22.9984 21.974Z" fill="white"/>
</svg>
