<svg width="23" height="24" viewBox="0 0 23 24" fill="none" xmlns="http://www.w3.org/2000/svg">
<path d="M22.1494 17.7016L19.3231 14.718C18.5439 13.8955 17.276 13.8955 16.4969 14.718L15.2122 16.0742C14.6219 16.6973 13.6614 16.6971 13.0713 16.0744L7.50303 10.1912C6.91135 9.56663 6.91126 8.55568 7.50303 7.93097C7.70995 7.71254 8.30412 7.0853 8.78768 6.57483C9.56346 5.75593 9.5743 4.42163 8.78693 3.59053L5.96142 0.617157C5.18222 -0.205359 3.91435 -0.205359 3.13724 0.615001C2.55573 1.22353 2.36817 1.41984 2.10743 1.6927C-0.702453 4.65891 -0.702453 9.4853 2.10729 12.4514L10.93 21.77C13.7464 24.7432 18.3049 24.7435 21.1216 21.77L22.1494 20.6851C22.9286 19.8625 22.9286 18.5241 22.1494 17.7016ZM4.07727 1.61166C4.33699 1.33749 4.75954 1.33744 5.0201 1.61241L7.84561 4.58578C8.10595 4.86061 8.10595 5.30541 7.84561 5.58029L7.37453 6.07754L3.60863 2.10206L4.07727 1.61166ZM11.8722 20.7756L3.0495 11.457C0.875572 9.16205 0.756082 5.55854 2.68201 3.11292L6.43698 7.07686C5.45033 8.2576 5.49145 10.0568 6.56074 11.1856L12.1288 17.0685C12.1288 17.0685 12.1289 17.0686 12.129 17.0687C13.1971 18.1963 14.9014 18.2425 16.0212 17.1995L19.7763 21.1636C17.467 23.1932 14.0611 23.0863 11.8722 20.7756ZM21.2074 19.6906L20.7363 20.1879L16.9679 16.2098L17.4389 15.7125C17.6987 15.4383 18.1213 15.4383 18.3811 15.7125L21.2073 18.6961C21.4671 18.9703 21.4671 19.4164 21.2074 19.6906Z" fill="white"/>
</svg>
